<svg xmlns="http://www.w3.org/2000/svg" xmlns:xlink="http://www.w3.org/1999/xlink" width="500" zoomAndPan="magnify" viewBox="0 0 375 37.5" height="50" preserveAspectRatio="xMidYMid meet" version="1.0"><defs><g/></defs><g fill="#539f3d" fill-opacity="1"><g transform="translate(12.592546, 26.931637)"><g><path d="M 0.28125 0 L 3.71875 -14.890625 L 1.515625 -14.890625 L 2.34375 -18.421875 L 10.40625 -18.421875 L 9.59375 -14.890625 L 7.40625 -14.890625 L 3.96875 0 Z M 0.28125 0 "/></g></g></g><g fill="#539f3d" fill-opacity="1"><g transform="translate(25.379128, 26.931637)"><g><path d="M -1.296875 0 L 2.953125 -18.421875 L 10.328125 -18.421875 L 9.515625 -14.859375 L 5.890625 -14.859375 L 5.0625 -11.28125 L 8.53125 -11.28125 L 7.734375 -7.8125 L 4.265625 -7.8125 L 3.28125 -3.578125 L 7.140625 -3.578125 L 6.328125 0 Z M -1.296875 0 "/></g></g></g><g fill="#539f3d" fill-opacity="1"><g transform="translate(38.508973, 26.931637)"><g><path d="M -1.296875 0 L 2.953125 -18.421875 L 6.75 -18.421875 L 6.40625 -9.609375 L 8.453125 -18.421875 L 12.015625 -18.421875 L 7.765625 0 L 4.15625 0 L 4.4375 -9.21875 L 2.3125 0 Z M -1.296875 0 "/></g></g></g><g fill="#539f3d" fill-opacity="1"><g transform="translate(53.483861, 26.931637)"><g><path d="M -1.296875 0 L 2.953125 -18.421875 L 10.328125 -18.421875 L 9.515625 -14.859375 L 5.890625 -14.859375 L 5.0625 -11.28125 L 8.53125 -11.28125 L 7.734375 -7.8125 L 4.265625 -7.8125 L 3.28125 -3.578125 L 7.140625 -3.578125 L 6.328125 0 Z M -1.296875 0 "/></g></g></g><g fill="#539f3d" fill-opacity="1"><g transform="translate(66.613707, 26.931637)"><g><path d="M -1.296875 0 L 2.953125 -18.421875 L 8.578125 -18.421875 L 7.53125 -7.1875 L 11.671875 -18.421875 L 17.328125 -18.421875 L 13.078125 0 L 9.71875 0 L 12.78125 -13.28125 L 7.59375 0 L 4.28125 0 L 5.09375 -13.28125 L 2.03125 0 Z M -1.296875 0 "/></g></g></g><g fill="#539f3d" fill-opacity="1"><g transform="translate(86.909185, 26.931637)"><g><path d="M 3.0625 0.171875 C 1.570312 0.171875 0.546875 -0.28125 -0.015625 -1.1875 C -0.578125 -2.09375 -0.664062 -3.367188 -0.28125 -5.015625 L 1.734375 -13.796875 C 2.109375 -15.378906 2.773438 -16.570312 3.734375 -17.375 C 4.691406 -18.1875 5.910156 -18.59375 7.390625 -18.59375 C 8.878906 -18.59375 9.914062 -18.1875 10.5 -17.375 C 11.09375 -16.570312 11.203125 -15.378906 10.828125 -13.796875 L 8.8125 -5.015625 C 8.425781 -3.359375 7.742188 -2.078125 6.765625 -1.171875 C 5.785156 -0.273438 4.550781 0.171875 3.0625 0.171875 Z M 3.828125 -3.21875 C 4.160156 -3.21875 4.421875 -3.359375 4.609375 -3.640625 C 4.796875 -3.929688 4.945312 -4.332031 5.0625 -4.84375 L 7.140625 -13.859375 C 7.222656 -14.253906 7.242188 -14.578125 7.203125 -14.828125 C 7.160156 -15.078125 6.972656 -15.203125 6.640625 -15.203125 C 6.023438 -15.203125 5.613281 -14.738281 5.40625 -13.8125 L 3.3125 -4.828125 C 3.1875 -4.296875 3.15625 -3.894531 3.21875 -3.625 C 3.28125 -3.351562 3.484375 -3.21875 3.828125 -3.21875 Z M 3.828125 -3.21875 "/></g></g></g><g fill="#539f3d" fill-opacity="1"><g transform="translate(101.62663, 26.931637)"><g><path d="M 3.046875 0.171875 C 1.367188 0.171875 0.253906 -0.238281 -0.296875 -1.0625 C -0.847656 -1.894531 -0.910156 -3.234375 -0.484375 -5.078125 L -0.0625 -6.890625 L 3.5625 -6.890625 L 3.015625 -4.59375 C 2.804688 -3.675781 2.992188 -3.21875 3.578125 -3.21875 C 3.898438 -3.21875 4.148438 -3.3125 4.328125 -3.5 C 4.515625 -3.695312 4.65625 -4.023438 4.75 -4.484375 C 4.894531 -5.085938 4.9375 -5.582031 4.875 -5.96875 C 4.820312 -6.363281 4.71875 -6.691406 4.5625 -6.953125 C 4.40625 -7.222656 4.101562 -7.632812 3.65625 -8.1875 L 2.4375 -9.78125 C 1.5 -10.976562 1.191406 -12.304688 1.515625 -13.765625 C 1.867188 -15.335938 2.503906 -16.535156 3.421875 -17.359375 C 4.335938 -18.179688 5.488281 -18.59375 6.875 -18.59375 C 8.539062 -18.59375 9.632812 -18.15625 10.15625 -17.28125 C 10.6875 -16.40625 10.734375 -15.03125 10.296875 -13.15625 L 6.53125 -13.15625 L 6.8125 -14.421875 C 6.875 -14.660156 6.851562 -14.847656 6.75 -14.984375 C 6.65625 -15.128906 6.484375 -15.203125 6.234375 -15.203125 C 5.953125 -15.203125 5.71875 -15.125 5.53125 -14.96875 C 5.34375 -14.8125 5.222656 -14.597656 5.171875 -14.328125 C 5.023438 -13.722656 5.222656 -13.101562 5.765625 -12.46875 L 7.4375 -10.40625 C 7.820312 -9.914062 8.128906 -9.453125 8.359375 -9.015625 C 8.585938 -8.578125 8.734375 -8.0625 8.796875 -7.46875 C 8.859375 -6.882812 8.800781 -6.179688 8.625 -5.359375 C 8.1875 -3.546875 7.53125 -2.171875 6.65625 -1.234375 C 5.78125 -0.296875 4.578125 0.171875 3.046875 0.171875 Z M 3.046875 0.171875 "/></g></g></g><g fill="#539f3d" fill-opacity="1"><g transform="translate(115.807721, 26.931637)"><g/></g></g><g fill="#539f3d" fill-opacity="1"><g transform="translate(125.118765, 26.931637)"><g><path d="M 0.28125 0 L 3.71875 -14.890625 L 1.515625 -14.890625 L 2.34375 -18.421875 L 10.40625 -18.421875 L 9.59375 -14.890625 L 7.40625 -14.890625 L 3.96875 0 Z M 0.28125 0 "/></g></g></g><g fill="#539f3d" fill-opacity="1"><g transform="translate(137.905349, 26.931637)"><g><path d="M 3.0625 0.171875 C 1.570312 0.171875 0.546875 -0.28125 -0.015625 -1.1875 C -0.578125 -2.09375 -0.664062 -3.367188 -0.28125 -5.015625 L 1.734375 -13.796875 C 2.109375 -15.378906 2.773438 -16.570312 3.734375 -17.375 C 4.691406 -18.1875 5.910156 -18.59375 7.390625 -18.59375 C 8.878906 -18.59375 9.914062 -18.1875 10.5 -17.375 C 11.09375 -16.570312 11.203125 -15.378906 10.828125 -13.796875 L 8.8125 -5.015625 C 8.425781 -3.359375 7.742188 -2.078125 6.765625 -1.171875 C 5.785156 -0.273438 4.550781 0.171875 3.0625 0.171875 Z M 3.828125 -3.21875 C 4.160156 -3.21875 4.421875 -3.359375 4.609375 -3.640625 C 4.796875 -3.929688 4.945312 -4.332031 5.0625 -4.84375 L 7.140625 -13.859375 C 7.222656 -14.253906 7.242188 -14.578125 7.203125 -14.828125 C 7.160156 -15.078125 6.972656 -15.203125 6.640625 -15.203125 C 6.023438 -15.203125 5.613281 -14.738281 5.40625 -13.8125 L 3.3125 -4.828125 C 3.1875 -4.296875 3.15625 -3.894531 3.21875 -3.625 C 3.28125 -3.351562 3.484375 -3.21875 3.828125 -3.21875 Z M 3.828125 -3.21875 "/></g></g></g><g fill="#539f3d" fill-opacity="1"><g transform="translate(152.622793, 26.931637)"><g><path d="M 2.953125 -18.421875 L 8.046875 -18.421875 C 9.359375 -18.421875 10.257812 -18.054688 10.75 -17.328125 C 11.25 -16.597656 11.335938 -15.519531 11.015625 -14.09375 L 9.0625 -5.46875 C 8.65625 -3.65625 8.023438 -2.289062 7.171875 -1.375 C 6.316406 -0.457031 5.144531 0 3.65625 0 L -1.296875 0 Z M 3.8125 -3.265625 C 4.488281 -3.265625 4.90625 -3.59375 5.0625 -4.25 L 7.25 -13.75 C 7.34375 -14.164062 7.378906 -14.476562 7.359375 -14.6875 C 7.335938 -14.894531 7.25 -15.03125 7.09375 -15.09375 C 6.945312 -15.164062 6.695312 -15.203125 6.34375 -15.203125 L 5.9375 -15.203125 L 3.171875 -3.265625 Z M 3.8125 -3.265625 "/></g></g></g><g fill="#539f3d" fill-opacity="1"><g transform="translate(167.490415, 26.931637)"><g><path d="M 3.0625 0.171875 C 1.570312 0.171875 0.546875 -0.28125 -0.015625 -1.1875 C -0.578125 -2.09375 -0.664062 -3.367188 -0.28125 -5.015625 L 1.734375 -13.796875 C 2.109375 -15.378906 2.773438 -16.570312 3.734375 -17.375 C 4.691406 -18.1875 5.910156 -18.59375 7.390625 -18.59375 C 8.878906 -18.59375 9.914062 -18.1875 10.5 -17.375 C 11.09375 -16.570312 11.203125 -15.378906 10.828125 -13.796875 L 8.8125 -5.015625 C 8.425781 -3.359375 7.742188 -2.078125 6.765625 -1.171875 C 5.785156 -0.273438 4.550781 0.171875 3.0625 0.171875 Z M 3.828125 -3.21875 C 4.160156 -3.21875 4.421875 -3.359375 4.609375 -3.640625 C 4.796875 -3.929688 4.945312 -4.332031 5.0625 -4.84375 L 7.140625 -13.859375 C 7.222656 -14.253906 7.242188 -14.578125 7.203125 -14.828125 C 7.160156 -15.078125 6.972656 -15.203125 6.640625 -15.203125 C 6.023438 -15.203125 5.613281 -14.738281 5.40625 -13.8125 L 3.3125 -4.828125 C 3.1875 -4.296875 3.15625 -3.894531 3.21875 -3.625 C 3.28125 -3.351562 3.484375 -3.21875 3.828125 -3.21875 Z M 3.828125 -3.21875 "/></g></g></g><g fill="#539f3d" fill-opacity="1"><g transform="translate(182.20786, 26.931637)"><g/></g></g><g fill="#539f3d" fill-opacity="1"><g transform="translate(191.518903, 26.931637)"><g><path d="M -1.296875 0 L 2.953125 -18.421875 L 6.640625 -18.421875 L 3.125 -3.125 L 6.921875 -3.125 L 6.1875 0 Z M -1.296875 0 "/></g></g></g><g fill="#539f3d" fill-opacity="1"><g transform="translate(204.326941, 26.931637)"><g><path d="M 3.0625 0.171875 C 1.570312 0.171875 0.546875 -0.28125 -0.015625 -1.1875 C -0.578125 -2.09375 -0.664062 -3.367188 -0.28125 -5.015625 L 1.734375 -13.796875 C 2.109375 -15.378906 2.773438 -16.570312 3.734375 -17.375 C 4.691406 -18.1875 5.910156 -18.59375 7.390625 -18.59375 C 8.878906 -18.59375 9.914062 -18.1875 10.5 -17.375 C 11.09375 -16.570312 11.203125 -15.378906 10.828125 -13.796875 L 8.8125 -5.015625 C 8.425781 -3.359375 7.742188 -2.078125 6.765625 -1.171875 C 5.785156 -0.273438 4.550781 0.171875 3.0625 0.171875 Z M 3.828125 -3.21875 C 4.160156 -3.21875 4.421875 -3.359375 4.609375 -3.640625 C 4.796875 -3.929688 4.945312 -4.332031 5.0625 -4.84375 L 7.140625 -13.859375 C 7.222656 -14.253906 7.242188 -14.578125 7.203125 -14.828125 C 7.160156 -15.078125 6.972656 -15.203125 6.640625 -15.203125 C 6.023438 -15.203125 5.613281 -14.738281 5.40625 -13.8125 L 3.3125 -4.828125 C 3.1875 -4.296875 3.15625 -3.894531 3.21875 -3.625 C 3.28125 -3.351562 3.484375 -3.21875 3.828125 -3.21875 Z M 3.828125 -3.21875 "/></g></g></g><g fill="#539f3d" fill-opacity="1"><g transform="translate(219.044385, 26.931637)"><g/></g></g><g fill="#539f3d" fill-opacity="1"><g transform="translate(228.355417, 26.931637)"><g><path d="M 4.109375 0.015625 C 3.554688 0.117188 3.242188 0.171875 3.171875 0.171875 C 1.679688 0.171875 0.644531 -0.25 0.0625 -1.09375 C -0.507812 -1.945312 -0.601562 -3.195312 -0.21875 -4.84375 L 1.8125 -13.75 C 2.1875 -15.332031 2.859375 -16.535156 3.828125 -17.359375 C 4.804688 -18.179688 6.03125 -18.59375 7.5 -18.59375 C 8.976562 -18.59375 10.007812 -18.179688 10.59375 -17.359375 C 11.175781 -16.535156 11.28125 -15.332031 10.90625 -13.75 L 8.875 -4.84375 C 8.519531 -3.332031 7.898438 -2.132812 7.015625 -1.25 L 8.359375 -0.234375 L 6.609375 1.953125 Z M 3.9375 -3.21875 C 4.300781 -3.21875 4.570312 -3.390625 4.75 -3.734375 C 4.925781 -4.078125 5.078125 -4.519531 5.203125 -5.0625 L 7.203125 -13.6875 C 7.304688 -14.15625 7.328125 -14.523438 7.265625 -14.796875 C 7.210938 -15.066406 7.019531 -15.203125 6.6875 -15.203125 C 6.101562 -15.203125 5.695312 -14.703125 5.46875 -13.703125 L 3.453125 -5 C 3.335938 -4.476562 3.296875 -4.050781 3.328125 -3.71875 C 3.367188 -3.382812 3.570312 -3.21875 3.9375 -3.21875 Z M 3.9375 -3.21875 "/></g></g></g><g fill="#539f3d" fill-opacity="1"><g transform="translate(243.244481, 26.931637)"><g><path d="M 2.953125 0.171875 C 1.441406 0.171875 0.421875 -0.253906 -0.109375 -1.109375 C -0.648438 -1.972656 -0.726562 -3.25 -0.34375 -4.9375 L 2.765625 -18.421875 L 6.34375 -18.421875 L 3.25 -5.078125 C 3.125 -4.492188 3.078125 -4.035156 3.109375 -3.703125 C 3.148438 -3.378906 3.359375 -3.21875 3.734375 -3.21875 C 4.097656 -3.21875 4.375 -3.378906 4.5625 -3.703125 C 4.757812 -4.023438 4.925781 -4.484375 5.0625 -5.078125 L 8.140625 -18.421875 L 11.734375 -18.421875 L 8.625 -4.9375 C 8.238281 -3.25 7.578125 -1.972656 6.640625 -1.109375 C 5.703125 -0.253906 4.472656 0.171875 2.953125 0.171875 Z M 2.953125 0.171875 "/></g></g></g><g fill="#539f3d" fill-opacity="1"><g transform="translate(257.704468, 26.931637)"><g><path d="M -1.296875 0 L 2.953125 -18.421875 L 10.328125 -18.421875 L 9.515625 -14.859375 L 5.890625 -14.859375 L 5.0625 -11.28125 L 8.53125 -11.28125 L 7.734375 -7.8125 L 4.265625 -7.8125 L 3.28125 -3.578125 L 7.140625 -3.578125 L 6.328125 0 Z M -1.296875 0 "/></g></g></g><g fill="#539f3d" fill-opacity="1"><g transform="translate(270.834314, 26.931637)"><g/></g></g><g fill="#539f3d" fill-opacity="1"><g transform="translate(280.145345, 26.931637)"><g><path d="M 2.953125 -18.421875 L 7.953125 -18.421875 C 9.296875 -18.421875 10.195312 -18.09375 10.65625 -17.4375 C 11.113281 -16.78125 11.171875 -15.707031 10.828125 -14.21875 L 10.640625 -13.40625 C 10.234375 -11.644531 9.359375 -10.59375 8.015625 -10.25 C 8.742188 -10.050781 9.179688 -9.585938 9.328125 -8.859375 C 9.472656 -8.128906 9.410156 -7.164062 9.140625 -5.96875 C 8.679688 -4.007812 8.039062 -2.523438 7.21875 -1.515625 C 6.40625 -0.503906 5.234375 0 3.703125 0 L -1.296875 0 Z M 5.71875 -11.5 C 6.03125 -11.5 6.269531 -11.613281 6.4375 -11.84375 C 6.601562 -12.082031 6.738281 -12.414062 6.84375 -12.84375 L 7.265625 -14.703125 C 7.410156 -15.296875 7.21875 -15.59375 6.6875 -15.59375 L 5.921875 -15.59375 L 4.96875 -11.5 Z M 3.421875 -3.234375 C 4.378906 -3.234375 4.960938 -3.691406 5.171875 -4.609375 L 5.703125 -6.90625 C 5.828125 -7.46875 5.835938 -7.890625 5.734375 -8.171875 C 5.640625 -8.460938 5.382812 -8.609375 4.96875 -8.609375 L 4.28125 -8.609375 L 3.0625 -3.265625 Z M 3.421875 -3.234375 "/></g></g></g><g fill="#539f3d" fill-opacity="1"><g transform="translate(294.712613, 26.931637)"><g><path d="M 2.953125 0.171875 C 1.441406 0.171875 0.421875 -0.253906 -0.109375 -1.109375 C -0.648438 -1.972656 -0.726562 -3.25 -0.34375 -4.9375 L 2.765625 -18.421875 L 6.34375 -18.421875 L 3.25 -5.078125 C 3.125 -4.492188 3.078125 -4.035156 3.109375 -3.703125 C 3.148438 -3.378906 3.359375 -3.21875 3.734375 -3.21875 C 4.097656 -3.21875 4.375 -3.378906 4.5625 -3.703125 C 4.757812 -4.023438 4.925781 -4.484375 5.0625 -5.078125 L 8.140625 -18.421875 L 11.734375 -18.421875 L 8.625 -4.9375 C 8.238281 -3.25 7.578125 -1.972656 6.640625 -1.109375 C 5.703125 -0.253906 4.472656 0.171875 2.953125 0.171875 Z M 2.953125 0.171875 "/></g></g></g><g fill="#539f3d" fill-opacity="1"><g transform="translate(309.172599, 26.931637)"><g><path d="M 3.046875 0.171875 C 1.367188 0.171875 0.253906 -0.238281 -0.296875 -1.0625 C -0.847656 -1.894531 -0.910156 -3.234375 -0.484375 -5.078125 L -0.0625 -6.890625 L 3.5625 -6.890625 L 3.015625 -4.59375 C 2.804688 -3.675781 2.992188 -3.21875 3.578125 -3.21875 C 3.898438 -3.21875 4.148438 -3.3125 4.328125 -3.5 C 4.515625 -3.695312 4.65625 -4.023438 4.75 -4.484375 C 4.894531 -5.085938 4.9375 -5.582031 4.875 -5.96875 C 4.820312 -6.363281 4.71875 -6.691406 4.5625 -6.953125 C 4.40625 -7.222656 4.101562 -7.632812 3.65625 -8.1875 L 2.4375 -9.78125 C 1.5 -10.976562 1.191406 -12.304688 1.515625 -13.765625 C 1.867188 -15.335938 2.503906 -16.535156 3.421875 -17.359375 C 4.335938 -18.179688 5.488281 -18.59375 6.875 -18.59375 C 8.539062 -18.59375 9.632812 -18.15625 10.15625 -17.28125 C 10.6875 -16.40625 10.734375 -15.03125 10.296875 -13.15625 L 6.53125 -13.15625 L 6.8125 -14.421875 C 6.875 -14.660156 6.851562 -14.847656 6.75 -14.984375 C 6.65625 -15.128906 6.484375 -15.203125 6.234375 -15.203125 C 5.953125 -15.203125 5.71875 -15.125 5.53125 -14.96875 C 5.34375 -14.8125 5.222656 -14.597656 5.171875 -14.328125 C 5.023438 -13.722656 5.222656 -13.101562 5.765625 -12.46875 L 7.4375 -10.40625 C 7.820312 -9.914062 8.128906 -9.453125 8.359375 -9.015625 C 8.585938 -8.578125 8.734375 -8.0625 8.796875 -7.46875 C 8.859375 -6.882812 8.800781 -6.179688 8.625 -5.359375 C 8.1875 -3.546875 7.53125 -2.171875 6.65625 -1.234375 C 5.78125 -0.296875 4.578125 0.171875 3.046875 0.171875 Z M 3.046875 0.171875 "/></g></g></g><g fill="#539f3d" fill-opacity="1"><g transform="translate(323.353697, 26.931637)"><g><path d="M 2.953125 0.171875 C 1.609375 0.171875 0.628906 -0.25 0.015625 -1.09375 C -0.597656 -1.9375 -0.734375 -3.09375 -0.390625 -4.5625 L 1.5625 -13.0625 C 1.988281 -14.894531 2.671875 -16.273438 3.609375 -17.203125 C 4.554688 -18.128906 5.8125 -18.59375 7.375 -18.59375 C 8.726562 -18.59375 9.734375 -18.222656 10.390625 -17.484375 C 11.054688 -16.742188 11.222656 -15.671875 10.890625 -14.265625 L 10.15625 -11.09375 L 6.5 -11.09375 L 7.140625 -13.8125 C 7.253906 -14.34375 7.269531 -14.707031 7.1875 -14.90625 C 7.113281 -15.101562 6.921875 -15.203125 6.609375 -15.203125 C 6.273438 -15.203125 6.019531 -15.085938 5.84375 -14.859375 C 5.664062 -14.640625 5.523438 -14.304688 5.421875 -13.859375 L 3.28125 -4.609375 C 3.175781 -4.128906 3.164062 -3.773438 3.25 -3.546875 C 3.34375 -3.328125 3.53125 -3.21875 3.8125 -3.21875 C 4.382812 -3.21875 4.78125 -3.679688 5 -4.609375 L 5.765625 -7.9375 L 9.46875 -7.9375 L 8.6875 -4.46875 C 7.96875 -1.375 6.054688 0.171875 2.953125 0.171875 Z M 2.953125 0.171875 "/></g></g></g><g fill="#539f3d" fill-opacity="1"><g transform="translate(337.813684, 26.931637)"><g><path d="M -1.78125 0 L 4.234375 -18.421875 L 10.484375 -18.421875 L 8 0 L 4.5 0 L 4.921875 -2.984375 L 2.703125 -2.984375 L 1.796875 0 Z M 3.65625 -5.921875 L 5.34375 -5.921875 L 6.671875 -15.296875 L 6.5 -15.296875 Z M 3.65625 -5.921875 "/></g></g></g><g fill="#539f3d" fill-opacity="1"><g transform="translate(352.509674, 26.931637)"><g><path d="M 3.046875 0.171875 C 1.367188 0.171875 0.253906 -0.238281 -0.296875 -1.0625 C -0.847656 -1.894531 -0.910156 -3.234375 -0.484375 -5.078125 L -0.0625 -6.890625 L 3.5625 -6.890625 L 3.015625 -4.59375 C 2.804688 -3.675781 2.992188 -3.21875 3.578125 -3.21875 C 3.898438 -3.21875 4.148438 -3.3125 4.328125 -3.5 C 4.515625 -3.695312 4.65625 -4.023438 4.75 -4.484375 C 4.894531 -5.085938 4.9375 -5.582031 4.875 -5.96875 C 4.820312 -6.363281 4.71875 -6.691406 4.5625 -6.953125 C 4.40625 -7.222656 4.101562 -7.632812 3.65625 -8.1875 L 2.4375 -9.78125 C 1.5 -10.976562 1.191406 -12.304688 1.515625 -13.765625 C 1.867188 -15.335938 2.503906 -16.535156 3.421875 -17.359375 C 4.335938 -18.179688 5.488281 -18.59375 6.875 -18.59375 C 8.539062 -18.59375 9.632812 -18.15625 10.15625 -17.28125 C 10.6875 -16.40625 10.734375 -15.03125 10.296875 -13.15625 L 6.53125 -13.15625 L 6.8125 -14.421875 C 6.875 -14.660156 6.851562 -14.847656 6.75 -14.984375 C 6.65625 -15.128906 6.484375 -15.203125 6.234375 -15.203125 C 5.953125 -15.203125 5.71875 -15.125 5.53125 -14.96875 C 5.34375 -14.8125 5.222656 -14.597656 5.171875 -14.328125 C 5.023438 -13.722656 5.222656 -13.101562 5.765625 -12.46875 L 7.4375 -10.40625 C 7.820312 -9.914062 8.128906 -9.453125 8.359375 -9.015625 C 8.585938 -8.578125 8.734375 -8.0625 8.796875 -7.46875 C 8.859375 -6.882812 8.800781 -6.179688 8.625 -5.359375 C 8.1875 -3.546875 7.53125 -2.171875 6.65625 -1.234375 C 5.78125 -0.296875 4.578125 0.171875 3.046875 0.171875 Z M 3.046875 0.171875 "/></g></g></g></svg>