<svg xmlns="http://www.w3.org/2000/svg" xmlns:xlink="http://www.w3.org/1999/xlink" width="300" zoomAndPan="magnify" viewBox="0 0 224.87999 149.999998" height="200" preserveAspectRatio="xMidYMid meet" version="1.0"><defs><clipPath id="8e5983e575"><path d="M 41.382812 4.296875 L 183 4.296875 L 183 145.972656 L 41.382812 145.972656 Z M 41.382812 4.296875 " clip-rule="nonzero"/></clipPath></defs><g clip-path="url(#8e5983e575)"><path fill="#ffffff" d="M 176.957031 139.820312 C 175.976562 140.804688 174.375 140.804688 173.394531 139.824219 L 141.460938 107.789062 C 140.984375 107.316406 140.71875 106.679688 140.71875 106.007812 C 140.71875 105.332031 140.984375 104.699219 141.460938 104.222656 C 141.953125 103.730469 142.597656 103.484375 143.242188 103.484375 C 143.886719 103.484375 144.53125 103.730469 145.023438 104.222656 L 176.957031 136.253906 C 177.941406 137.238281 177.941406 138.839844 176.957031 139.820312 Z M 46.425781 54.847656 C 46.425781 29.820312 66.789062 9.453125 91.820312 9.453125 C 116.847656 9.453125 137.214844 29.820312 137.214844 54.847656 C 137.214844 79.878906 116.847656 100.242188 91.820312 100.242188 C 66.789062 100.242188 46.425781 79.878906 46.425781 54.847656 Z M 180.527344 132.691406 L 148.589844 100.65625 C 146.257812 98.324219 142.769531 97.84375 139.953125 99.203125 L 129.339844 88.515625 C 137.363281 79.578125 142.257812 67.773438 142.257812 54.847656 C 142.257812 27.039062 119.632812 4.410156 91.820312 4.410156 C 64.007812 4.410156 41.382812 27.039062 41.382812 54.847656 C 41.382812 82.660156 64.007812 105.285156 91.820312 105.285156 C 104.894531 105.285156 116.820312 100.285156 125.792969 92.097656 L 136.402344 102.785156 C 135.933594 103.78125 135.675781 104.875 135.675781 106.007812 C 135.675781 108.027344 136.464844 109.929688 137.890625 111.355469 L 169.824219 143.386719 C 171.296875 144.863281 173.238281 145.601562 175.175781 145.601562 C 177.113281 145.601562 179.046875 144.863281 180.523438 143.386719 C 183.472656 140.4375 183.472656 135.640625 180.527344 132.691406 " fill-opacity="1" fill-rule="nonzero"/></g><path fill="#ffffff" d="M 100.800781 53.050781 C 99.816406 54.035156 99.816406 55.632812 100.800781 56.617188 L 113.285156 69.097656 L 106.152344 76.230469 L 93.667969 63.75 C 93.195312 63.277344 92.554688 63.011719 91.886719 63.011719 C 91.214844 63.011719 90.574219 63.277344 90.101562 63.75 L 77.621094 76.230469 L 70.488281 69.097656 L 82.972656 56.617188 C 83.957031 55.632812 83.957031 54.035156 82.972656 53.050781 L 70.488281 40.566406 L 77.621094 33.433594 L 90.101562 45.914062 C 90.574219 46.386719 91.214844 46.65625 91.886719 46.65625 C 92.554688 46.65625 93.195312 46.386719 93.667969 45.914062 L 106.152344 33.433594 L 113.285156 40.566406 Z M 119.375 40.566406 C 119.375 39.898438 119.105469 39.257812 118.632812 38.785156 L 107.9375 28.085938 C 106.949219 27.101562 105.351562 27.101562 104.367188 28.085938 L 91.886719 40.566406 L 79.402344 28.085938 C 78.417969 27.101562 76.820312 27.101562 75.835938 28.085938 L 65.136719 38.785156 C 64.152344 39.769531 64.152344 41.363281 65.136719 42.351562 L 77.621094 54.832031 L 65.136719 67.316406 C 64.152344 68.300781 64.152344 69.894531 65.136719 70.882812 L 75.835938 81.582031 C 76.820312 82.566406 78.417969 82.566406 79.402344 81.582031 L 91.886719 69.097656 L 104.367188 81.582031 C 104.859375 82.074219 105.503906 82.320312 106.152344 82.320312 C 106.796875 82.320312 107.445312 82.074219 107.9375 81.582031 L 118.632812 70.882812 C 119.105469 70.40625 119.375 69.769531 119.375 69.097656 C 119.375 68.429688 119.105469 67.789062 118.632812 67.316406 L 106.152344 54.832031 L 118.632812 42.351562 C 119.105469 41.875 119.375 41.238281 119.375 40.566406 " fill-opacity="1" fill-rule="nonzero"/></svg>