<svg xmlns="http://www.w3.org/2000/svg" xmlns:xlink="http://www.w3.org/1999/xlink" width="500" zoomAndPan="magnify" viewBox="0 0 375 74.999997" height="100" preserveAspectRatio="xMidYMid meet" version="1.0"><defs><g/></defs><rect x="-37.5" width="450" fill="#ffffff" y="-7.5" height="89.999996" fill-opacity="1"/><rect x="-37.5" width="450" fill="#000000" y="-7.5" height="89.999996" fill-opacity="1"/><g fill="#ff1f70" fill-opacity="1"><g transform="translate(16.707247, 48.199645)"><g><path d="M 6.0625 -37.671875 L 16.015625 -37.671875 C 19.023438 -37.671875 20.945312 -36.695312 21.78125 -34.75 C 22.613281 -32.8125 22.601562 -29.972656 21.75 -26.234375 C 20.875 -22.484375 19.644531 -19.65625 18.0625 -17.75 C 16.488281 -15.851562 14.226562 -14.90625 11.28125 -14.90625 L 8.203125 -14.90625 L 4.78125 0 L -2.625 0 Z M 10.21875 -21.703125 C 11.125 -21.703125 11.828125 -21.867188 12.328125 -22.203125 C 12.828125 -22.546875 13.210938 -23.03125 13.484375 -23.65625 C 13.765625 -24.289062 14.050781 -25.191406 14.34375 -26.359375 C 14.695312 -27.941406 14.773438 -29.082031 14.578125 -29.78125 C 14.390625 -30.476562 13.769531 -30.828125 12.71875 -30.828125 L 11.890625 -30.828125 L 9.78125 -21.703125 Z M 10.21875 -21.703125 "/></g></g></g><g fill="#ff1f70" fill-opacity="1"><g transform="translate(46.183783, 48.199645)"><g><path d="M 6.0625 0.34375 C 3.3125 0.34375 1.304688 -0.515625 0.046875 -2.234375 C -1.210938 -3.960938 -1.488281 -6.332031 -0.78125 -9.34375 L 3.203125 -26.703125 C 4.078125 -30.453125 5.476562 -33.273438 7.40625 -35.171875 C 9.34375 -37.078125 11.90625 -38.03125 15.09375 -38.03125 C 17.863281 -38.03125 19.921875 -37.269531 21.265625 -35.75 C 22.617188 -34.226562 22.957031 -32.035156 22.28125 -29.171875 L 20.796875 -22.671875 L 13.296875 -22.671875 L 14.609375 -28.25 C 14.835938 -29.332031 14.875 -30.078125 14.71875 -30.484375 C 14.5625 -30.890625 14.160156 -31.09375 13.515625 -31.09375 C 12.835938 -31.09375 12.316406 -30.859375 11.953125 -30.390625 C 11.585938 -29.921875 11.300781 -29.234375 11.09375 -28.328125 L 6.71875 -9.4375 C 6.507812 -8.4375 6.492188 -7.707031 6.671875 -7.25 C 6.847656 -6.800781 7.226562 -6.578125 7.8125 -6.578125 C 8.976562 -6.578125 9.78125 -7.53125 10.21875 -9.4375 L 11.796875 -16.234375 L 19.390625 -16.234375 L 17.765625 -9.125 C 16.304688 -2.8125 12.40625 0.34375 6.0625 0.34375 Z M 6.0625 0.34375 "/></g></g></g><g fill="#ff1f70" fill-opacity="1"><g transform="translate(75.748047, 48.199645)"><g/></g></g><g fill="#ff1f70" fill-opacity="1"><g transform="translate(94.784992, 48.199645)"><g><path d="M -2.625 0 L 6.0625 -37.671875 L 21.140625 -37.671875 L 19.484375 -30.34375 L 11.984375 -30.34375 L 10.578125 -24.34375 L 17.671875 -24.34375 L 16.015625 -17.109375 L 8.90625 -17.109375 L 4.953125 0 Z M -2.625 0 "/></g></g></g><g fill="#ff1f70" fill-opacity="1"><g transform="translate(121.059472, 48.199645)"><g><path d="M -3.640625 0 L 8.6875 -37.671875 L 21.453125 -37.671875 L 16.359375 0 L 9.21875 0 L 10.09375 -6.09375 L 5.53125 -6.09375 L 3.6875 0 Z M 7.5 -12.109375 L 10.921875 -12.109375 L 13.640625 -31.265625 L 13.296875 -31.265625 Z M 7.5 -12.109375 "/></g></g></g><g fill="#ff1f70" fill-opacity="1"><g transform="translate(151.106251, 48.199645)"><g><path d="M 6.234375 0.34375 C 2.804688 0.34375 0.53125 -0.5 -0.59375 -2.1875 C -1.71875 -3.882812 -1.84375 -6.617188 -0.96875 -10.390625 L -0.125 -14.078125 L 7.28125 -14.078125 L 6.1875 -9.390625 C 5.75 -7.515625 6.128906 -6.578125 7.328125 -6.578125 C 8.003906 -6.578125 8.523438 -6.773438 8.890625 -7.171875 C 9.253906 -7.566406 9.535156 -8.234375 9.734375 -9.171875 C 10.023438 -10.398438 10.113281 -11.414062 10 -12.21875 C 9.882812 -13.019531 9.664062 -13.691406 9.34375 -14.234375 C 9.019531 -14.773438 8.40625 -15.613281 7.5 -16.75 L 5 -20 C 3.070312 -22.457031 2.441406 -25.175781 3.109375 -28.15625 C 3.847656 -31.375 5.148438 -33.820312 7.015625 -35.5 C 8.890625 -37.1875 11.242188 -38.03125 14.078125 -38.03125 C 17.472656 -38.03125 19.710938 -37.128906 20.796875 -35.328125 C 21.878906 -33.523438 21.96875 -30.710938 21.0625 -26.890625 L 13.375 -26.890625 L 13.953125 -29.46875 C 14.066406 -29.96875 14.019531 -30.363281 13.8125 -30.65625 C 13.613281 -30.945312 13.265625 -31.09375 12.765625 -31.09375 C 12.179688 -31.09375 11.695312 -30.929688 11.3125 -30.609375 C 10.9375 -30.285156 10.691406 -29.847656 10.578125 -29.296875 C 10.285156 -28.066406 10.691406 -26.796875 11.796875 -25.484375 L 15.21875 -21.265625 C 16.007812 -20.273438 16.640625 -19.332031 17.109375 -18.4375 C 17.578125 -17.550781 17.875 -16.5 18 -15.28125 C 18.132812 -14.070312 18.015625 -12.632812 17.640625 -10.96875 C 16.753906 -7.25 15.410156 -4.429688 13.609375 -2.515625 C 11.816406 -0.609375 9.359375 0.34375 6.234375 0.34375 Z M 6.234375 0.34375 "/></g></g></g><g fill="#ff1f70" fill-opacity="1"><g transform="translate(180.10029, 48.199645)"><g><path d="M 0.5625 0 L 7.59375 -30.4375 L 3.109375 -30.4375 L 4.78125 -37.671875 L 21.265625 -37.671875 L 19.609375 -30.4375 L 15.125 -30.4375 L 8.109375 0 Z M 0.5625 0 "/></g></g></g><g fill="#ff1f70" fill-opacity="1"><g transform="translate(206.24318, 48.199645)"><g/></g></g><g fill="#ff1f70" fill-opacity="1"><g transform="translate(225.280131, 48.199645)"><g><path d="M 6.234375 0.34375 C 2.804688 0.34375 0.53125 -0.5 -0.59375 -2.1875 C -1.71875 -3.882812 -1.84375 -6.617188 -0.96875 -10.390625 L -0.125 -14.078125 L 7.28125 -14.078125 L 6.1875 -9.390625 C 5.75 -7.515625 6.128906 -6.578125 7.328125 -6.578125 C 8.003906 -6.578125 8.523438 -6.773438 8.890625 -7.171875 C 9.253906 -7.566406 9.535156 -8.234375 9.734375 -9.171875 C 10.023438 -10.398438 10.113281 -11.414062 10 -12.21875 C 9.882812 -13.019531 9.664062 -13.691406 9.34375 -14.234375 C 9.019531 -14.773438 8.40625 -15.613281 7.5 -16.75 L 5 -20 C 3.070312 -22.457031 2.441406 -25.175781 3.109375 -28.15625 C 3.847656 -31.375 5.148438 -33.820312 7.015625 -35.5 C 8.890625 -37.1875 11.242188 -38.03125 14.078125 -38.03125 C 17.472656 -38.03125 19.710938 -37.128906 20.796875 -35.328125 C 21.878906 -33.523438 21.96875 -30.710938 21.0625 -26.890625 L 13.375 -26.890625 L 13.953125 -29.46875 C 14.066406 -29.96875 14.019531 -30.363281 13.8125 -30.65625 C 13.613281 -30.945312 13.265625 -31.09375 12.765625 -31.09375 C 12.179688 -31.09375 11.695312 -30.929688 11.3125 -30.609375 C 10.9375 -30.285156 10.691406 -29.847656 10.578125 -29.296875 C 10.285156 -28.066406 10.691406 -26.796875 11.796875 -25.484375 L 15.21875 -21.265625 C 16.007812 -20.273438 16.640625 -19.332031 17.109375 -18.4375 C 17.578125 -17.550781 17.875 -16.5 18 -15.28125 C 18.132812 -14.070312 18.015625 -12.632812 17.640625 -10.96875 C 16.753906 -7.25 15.410156 -4.429688 13.609375 -2.515625 C 11.816406 -0.609375 9.359375 0.34375 6.234375 0.34375 Z M 6.234375 0.34375 "/></g></g></g><g fill="#ff1f70" fill-opacity="1"><g transform="translate(254.274158, 48.199645)"><g><path d="M 0.5625 0 L 7.59375 -30.4375 L 3.109375 -30.4375 L 4.78125 -37.671875 L 21.265625 -37.671875 L 19.609375 -30.4375 L 15.125 -30.4375 L 8.109375 0 Z M 0.5625 0 "/></g></g></g><g fill="#ff1f70" fill-opacity="1"><g transform="translate(280.417048, 48.199645)"><g><path d="M 6.28125 0.34375 C 3.238281 0.34375 1.140625 -0.582031 -0.015625 -2.4375 C -1.171875 -4.289062 -1.351562 -6.898438 -0.5625 -10.265625 L 3.5625 -28.203125 C 4.320312 -31.441406 5.679688 -33.890625 7.640625 -35.546875 C 9.597656 -37.203125 12.097656 -38.03125 15.140625 -38.03125 C 18.179688 -38.03125 20.300781 -37.203125 21.5 -35.546875 C 22.695312 -33.890625 22.914062 -31.441406 22.15625 -28.203125 L 18.03125 -10.265625 C 17.238281 -6.867188 15.84375 -4.25 13.84375 -2.40625 C 11.84375 -0.570312 9.320312 0.34375 6.28125 0.34375 Z M 7.859375 -6.578125 C 8.523438 -6.578125 9.046875 -6.867188 9.421875 -7.453125 C 9.804688 -8.035156 10.117188 -8.851562 10.359375 -9.90625 L 14.609375 -28.328125 C 14.785156 -29.148438 14.828125 -29.816406 14.734375 -30.328125 C 14.648438 -30.835938 14.269531 -31.09375 13.59375 -31.09375 C 12.34375 -31.09375 11.5 -30.144531 11.0625 -28.25 L 6.796875 -9.875 C 6.535156 -8.789062 6.46875 -7.96875 6.59375 -7.40625 C 6.726562 -6.851562 7.148438 -6.578125 7.859375 -6.578125 Z M 7.859375 -6.578125 "/></g></g></g><g fill="#ff1f70" fill-opacity="1"><g transform="translate(310.507691, 48.199645)"><g><path d="M 6.0625 -37.671875 L 17.640625 -37.671875 C 19.472656 -37.671875 20.800781 -37.253906 21.625 -36.421875 C 22.445312 -35.585938 22.859375 -34.414062 22.859375 -32.90625 C 22.859375 -31.40625 22.59375 -29.488281 22.0625 -27.15625 C 21.5625 -25.019531 20.894531 -23.347656 20.0625 -22.140625 C 19.226562 -20.941406 18.066406 -20.113281 16.578125 -19.65625 C 17.660156 -19.414062 18.351562 -18.84375 18.65625 -17.9375 C 18.96875 -17.03125 18.945312 -15.800781 18.59375 -14.25 L 15.21875 0 L 7.859375 0 L 11.234375 -14.734375 C 11.492188 -15.785156 11.445312 -16.457031 11.09375 -16.75 C 10.75 -17.039062 10.035156 -17.1875 8.953125 -17.1875 L 5 0 L -2.625 0 Z M 12.328125 -23.734375 C 13.378906 -23.734375 14.171875 -24.875 14.703125 -27.15625 C 14.929688 -28.144531 15.050781 -28.882812 15.0625 -29.375 C 15.082031 -29.875 14.992188 -30.21875 14.796875 -30.40625 C 14.609375 -30.601562 14.296875 -30.703125 13.859375 -30.703125 L 12.109375 -30.703125 L 10.53125 -23.734375 Z M 12.328125 -23.734375 "/></g></g></g><g fill="#ff1f70" fill-opacity="1"><g transform="translate(340.203537, 48.199645)"><g><path d="M -2.625 0 L 6.0625 -37.671875 L 21.140625 -37.671875 L 19.484375 -30.390625 L 12.0625 -30.390625 L 10.359375 -23.0625 L 17.453125 -23.0625 L 15.84375 -15.96875 L 8.734375 -15.96875 L 6.71875 -7.328125 L 14.609375 -7.328125 L 12.9375 0 Z M -2.625 0 "/></g></g></g><g fill="#ffffff" fill-opacity="1"><g transform="translate(124.600434, 66.794773)"><g><path d="M 4.515625 -1.1875 C 4.953125 -1.1875 5.367188 -1.25 5.765625 -1.375 C 6.171875 -1.5 6.484375 -1.65625 6.703125 -1.84375 L 6.703125 -2.9375 L 4.78125 -2.9375 L 4.78125 -4.171875 L 8.21875 -4.171875 L 8.21875 -1.265625 C 7.800781 -0.828125 7.253906 -0.488281 6.578125 -0.25 C 5.910156 -0.0078125 5.207031 0.109375 4.46875 0.109375 C 3.1875 0.109375 2.195312 -0.242188 1.5 -0.953125 C 0.8125 -1.671875 0.46875 -2.679688 0.46875 -3.984375 C 0.46875 -5.285156 0.816406 -6.28125 1.515625 -6.96875 C 2.210938 -7.664062 3.210938 -8.015625 4.515625 -8.015625 C 6.367188 -8.015625 7.546875 -7.328125 8.046875 -5.953125 L 6.53125 -5.5 C 6.363281 -5.894531 6.101562 -6.195312 5.75 -6.40625 C 5.394531 -6.613281 4.984375 -6.71875 4.515625 -6.71875 C 3.734375 -6.71875 3.140625 -6.484375 2.734375 -6.015625 C 2.335938 -5.546875 2.140625 -4.867188 2.140625 -3.984375 C 2.140625 -3.085938 2.347656 -2.394531 2.765625 -1.90625 C 3.179688 -1.425781 3.765625 -1.1875 4.515625 -1.1875 Z M 4.515625 -1.1875 "/></g></g></g><g fill="#ffffff" fill-opacity="1"><g transform="translate(135.827577, 66.794773)"><g><path d="M 6.359375 0 L 5.65625 -2.015625 L 2.640625 -2.015625 L 1.9375 0 L 0.28125 0 L 3.171875 -7.90625 L 5.125 -7.90625 L 7.984375 0 Z M 4.140625 -6.6875 L 4.109375 -6.5625 C 4.066406 -6.425781 4.019531 -6.269531 3.96875 -6.09375 C 3.914062 -5.925781 3.597656 -4.984375 3.015625 -3.265625 L 5.28125 -3.265625 L 4.5 -5.53125 L 4.265625 -6.296875 Z M 4.140625 -6.6875 "/></g></g></g><g fill="#ffffff" fill-opacity="1"><g transform="translate(146.415697, 66.794773)"><g><path d="M 7.328125 0 L 7.328125 -4.78125 C 7.328125 -4.894531 7.328125 -5.003906 7.328125 -5.109375 C 7.328125 -5.222656 7.347656 -5.691406 7.390625 -6.515625 C 7.117188 -5.503906 6.921875 -4.800781 6.796875 -4.40625 L 5.375 0 L 4.1875 0 L 2.765625 -4.40625 L 2.171875 -6.515625 C 2.210938 -5.640625 2.234375 -5.0625 2.234375 -4.78125 L 2.234375 0 L 0.765625 0 L 0.765625 -7.90625 L 2.984375 -7.90625 L 4.390625 -3.484375 L 4.515625 -3.0625 L 4.78125 -2 L 5.140625 -3.265625 L 6.59375 -7.90625 L 8.796875 -7.90625 L 8.796875 0 Z M 7.328125 0 "/></g></g></g><g fill="#ffffff" fill-opacity="1"><g transform="translate(158.276256, 66.794773)"><g><path d="M 0.765625 0 L 0.765625 -7.90625 L 2.421875 -7.90625 L 2.421875 0 Z M 0.765625 0 "/></g></g></g><g fill="#ffffff" fill-opacity="1"><g transform="translate(163.763404, 66.794773)"><g><path d="M 5.578125 0 L 2.140625 -6.078125 C 2.203125 -5.492188 2.234375 -5.019531 2.234375 -4.65625 L 2.234375 0 L 0.765625 0 L 0.765625 -7.90625 L 2.65625 -7.90625 L 6.15625 -1.765625 C 6.082031 -2.328125 6.046875 -2.84375 6.046875 -3.3125 L 6.046875 -7.90625 L 7.515625 -7.90625 L 7.515625 0 Z M 5.578125 0 "/></g></g></g><g fill="#ffffff" fill-opacity="1"><g transform="translate(174.351525, 66.794773)"><g><path d="M 4.515625 -1.1875 C 4.953125 -1.1875 5.367188 -1.25 5.765625 -1.375 C 6.171875 -1.5 6.484375 -1.65625 6.703125 -1.84375 L 6.703125 -2.9375 L 4.78125 -2.9375 L 4.78125 -4.171875 L 8.21875 -4.171875 L 8.21875 -1.265625 C 7.800781 -0.828125 7.253906 -0.488281 6.578125 -0.25 C 5.910156 -0.0078125 5.207031 0.109375 4.46875 0.109375 C 3.1875 0.109375 2.195312 -0.242188 1.5 -0.953125 C 0.8125 -1.671875 0.46875 -2.679688 0.46875 -3.984375 C 0.46875 -5.285156 0.816406 -6.28125 1.515625 -6.96875 C 2.210938 -7.664062 3.210938 -8.015625 4.515625 -8.015625 C 6.367188 -8.015625 7.546875 -7.328125 8.046875 -5.953125 L 6.53125 -5.5 C 6.363281 -5.894531 6.101562 -6.195312 5.75 -6.40625 C 5.394531 -6.613281 4.984375 -6.71875 4.515625 -6.71875 C 3.734375 -6.71875 3.140625 -6.484375 2.734375 -6.015625 C 2.335938 -5.546875 2.140625 -4.867188 2.140625 -3.984375 C 2.140625 -3.085938 2.347656 -2.394531 2.765625 -1.90625 C 3.179688 -1.425781 3.765625 -1.1875 4.515625 -1.1875 Z M 4.515625 -1.1875 "/></g></g></g><g fill="#ffffff" fill-opacity="1"><g transform="translate(185.57867, 66.794773)"><g/></g></g><g fill="#ffffff" fill-opacity="1"><g transform="translate(191.065817, 66.794773)"><g><path d="M 0.5 -2.15625 C 0.5 -2.664062 0.648438 -3.113281 0.953125 -3.5 C 1.253906 -3.894531 1.738281 -4.25 2.40625 -4.5625 C 2.125 -5.125 1.984375 -5.644531 1.984375 -6.125 C 1.984375 -6.707031 2.164062 -7.15625 2.53125 -7.46875 C 2.894531 -7.789062 3.414062 -7.953125 4.09375 -7.953125 C 4.726562 -7.953125 5.226562 -7.800781 5.59375 -7.5 C 5.957031 -7.195312 6.140625 -6.789062 6.140625 -6.28125 C 6.140625 -5.988281 6.066406 -5.726562 5.921875 -5.5 C 5.773438 -5.269531 5.566406 -5.054688 5.296875 -4.859375 C 5.023438 -4.660156 4.570312 -4.410156 3.9375 -4.109375 C 4.300781 -3.453125 4.757812 -2.820312 5.3125 -2.21875 C 5.695312 -2.8125 5.988281 -3.492188 6.1875 -4.265625 L 7.359375 -3.875 C 7.109375 -3 6.75 -2.210938 6.28125 -1.515625 C 6.601562 -1.242188 6.9375 -1.109375 7.28125 -1.109375 C 7.519531 -1.109375 7.738281 -1.132812 7.9375 -1.1875 L 7.9375 -0.0625 C 7.726562 0.0195312 7.484375 0.0625 7.203125 0.0625 C 6.878906 0.0625 6.554688 0.00390625 6.234375 -0.109375 C 5.910156 -0.222656 5.613281 -0.390625 5.34375 -0.609375 C 4.707031 -0.128906 4 0.109375 3.21875 0.109375 C 2.351562 0.109375 1.679688 -0.0859375 1.203125 -0.484375 C 0.734375 -0.878906 0.5 -1.4375 0.5 -2.15625 Z M 4.875 -6.265625 C 4.875 -6.484375 4.800781 -6.660156 4.65625 -6.796875 C 4.519531 -6.929688 4.332031 -7 4.09375 -7 C 3.800781 -7 3.578125 -6.914062 3.421875 -6.75 C 3.273438 -6.59375 3.203125 -6.378906 3.203125 -6.109375 C 3.203125 -5.785156 3.300781 -5.425781 3.5 -5.03125 C 3.894531 -5.195312 4.175781 -5.335938 4.34375 -5.453125 C 4.519531 -5.566406 4.648438 -5.6875 4.734375 -5.8125 C 4.828125 -5.945312 4.875 -6.097656 4.875 -6.265625 Z M 4.421875 -1.375 C 3.796875 -2.070312 3.285156 -2.78125 2.890625 -3.5 C 2.242188 -3.195312 1.921875 -2.757812 1.921875 -2.1875 C 1.921875 -1.8125 2.039062 -1.507812 2.28125 -1.28125 C 2.53125 -1.0625 2.863281 -0.953125 3.28125 -0.953125 C 3.53125 -0.953125 3.75 -0.992188 3.9375 -1.078125 C 4.132812 -1.171875 4.296875 -1.269531 4.421875 -1.375 Z M 4.421875 -1.375 "/></g></g></g><g fill="#ffffff" fill-opacity="1"><g transform="translate(201.653939, 66.794773)"><g/></g></g><g fill="#ffffff" fill-opacity="1"><g transform="translate(207.141086, 66.794773)"><g><path d="M 8.78125 0 L 6.828125 0 L 5.75 -4.5625 C 5.625 -5.101562 5.515625 -5.671875 5.421875 -6.265625 C 5.328125 -5.773438 5.253906 -5.398438 5.203125 -5.140625 C 5.148438 -4.878906 4.753906 -3.164062 4.015625 0 L 2.046875 0 L 0.015625 -7.90625 L 1.6875 -7.90625 L 2.828125 -2.796875 L 3.09375 -1.5625 C 3.195312 -2.082031 3.296875 -2.578125 3.390625 -3.046875 C 3.492188 -3.523438 3.867188 -5.144531 4.515625 -7.90625 L 6.359375 -7.90625 L 7.359375 -3.703125 C 7.441406 -3.378906 7.578125 -2.664062 7.765625 -1.5625 L 7.90625 -2.21875 L 8.203125 -3.5 L 9.15625 -7.90625 L 10.828125 -7.90625 Z M 8.78125 0 "/></g></g></g><g fill="#ffffff" fill-opacity="1"><g transform="translate(220.274089, 66.794773)"><g><path d="M 8.453125 -3.984375 C 8.453125 -3.160156 8.285156 -2.4375 7.953125 -1.8125 C 7.628906 -1.1875 7.164062 -0.707031 6.5625 -0.375 C 5.957031 -0.0507812 5.253906 0.109375 4.453125 0.109375 C 3.203125 0.109375 2.222656 -0.253906 1.515625 -0.984375 C 0.816406 -1.710938 0.46875 -2.710938 0.46875 -3.984375 C 0.46875 -5.253906 0.816406 -6.242188 1.515625 -6.953125 C 2.222656 -7.660156 3.203125 -8.015625 4.453125 -8.015625 C 5.710938 -8.015625 6.691406 -7.65625 7.390625 -6.9375 C 8.097656 -6.21875 8.453125 -5.234375 8.453125 -3.984375 Z M 6.765625 -3.984375 C 6.765625 -4.835938 6.5625 -5.503906 6.15625 -5.984375 C 5.75 -6.472656 5.179688 -6.71875 4.453125 -6.71875 C 3.710938 -6.71875 3.140625 -6.476562 2.734375 -6 C 2.335938 -5.519531 2.140625 -4.847656 2.140625 -3.984375 C 2.140625 -3.117188 2.34375 -2.4375 2.75 -1.9375 C 3.164062 -1.4375 3.734375 -1.1875 4.453125 -1.1875 C 5.191406 -1.1875 5.757812 -1.425781 6.15625 -1.90625 C 6.5625 -2.394531 6.765625 -3.085938 6.765625 -3.984375 Z M 6.765625 -3.984375 "/></g></g></g><g fill="#ffffff" fill-opacity="1"><g transform="translate(231.501234, 66.794773)"><g><path d="M 6.203125 0 L 4.359375 -3 L 2.421875 -3 L 2.421875 0 L 0.765625 0 L 0.765625 -7.90625 L 4.71875 -7.90625 C 5.65625 -7.90625 6.378906 -7.703125 6.890625 -7.296875 C 7.410156 -6.890625 7.671875 -6.304688 7.671875 -5.546875 C 7.671875 -4.992188 7.507812 -4.515625 7.1875 -4.109375 C 6.875 -3.710938 6.453125 -3.445312 5.921875 -3.3125 L 8.0625 0 Z M 6 -5.484375 C 6 -6.234375 5.515625 -6.609375 4.546875 -6.609375 L 2.421875 -6.609375 L 2.421875 -4.28125 L 4.59375 -4.28125 C 5.050781 -4.28125 5.398438 -4.382812 5.640625 -4.59375 C 5.878906 -4.800781 6 -5.097656 6 -5.484375 Z M 6 -5.484375 "/></g></g></g><g fill="#ffffff" fill-opacity="1"><g transform="translate(242.08935, 66.794773)"><g><path d="M 6.234375 0 L 3.390625 -3.625 L 2.421875 -2.875 L 2.421875 0 L 0.765625 0 L 0.765625 -7.90625 L 2.421875 -7.90625 L 2.421875 -4.3125 L 5.984375 -7.90625 L 7.90625 -7.90625 L 4.53125 -4.5625 L 8.1875 0 Z M 6.234375 0 "/></g></g></g></svg>