<svg xmlns="http://www.w3.org/2000/svg" xmlns:xlink="http://www.w3.org/1999/xlink" width="1024" zoomAndPan="magnify" viewBox="0 0 768 767.999994" height="1024" preserveAspectRatio="xMidYMid meet" version="1.0"><defs><g/></defs><rect x="-76.8" width="921.6" fill="#ffffff" y="-76.799999" height="921.599993" fill-opacity="1"/><rect x="-76.8" width="921.6" fill="#000000" y="-76.799999" height="921.599993" fill-opacity="1"/><g fill="#ff1f70" fill-opacity="1"><g transform="translate(53.963131, 533.689998)"><g><path d="M 52.578125 -327.3125 L 139.078125 -327.3125 C 165.234375 -327.3125 181.929688 -318.863281 189.171875 -301.96875 C 196.410156 -285.070312 196.347656 -260.367188 188.984375 -227.859375 C 181.359375 -195.335938 170.6875 -170.820312 156.96875 -154.3125 C 143.257812 -137.800781 123.578125 -129.546875 97.921875 -129.546875 L 71.25 -129.546875 L 41.53125 0 L -22.875 0 Z M 88.78125 -188.609375 C 96.65625 -188.609375 102.75 -190.066406 107.0625 -192.984375 C 111.382812 -195.910156 114.75 -200.101562 117.15625 -205.5625 C 119.570312 -211.03125 122.050781 -218.84375 124.59375 -229 C 127.632812 -242.71875 128.328125 -252.625 126.671875 -258.71875 C 125.023438 -264.8125 119.632812 -267.859375 110.5 -267.859375 L 103.25 -267.859375 L 84.96875 -188.609375 Z M 88.78125 -188.609375 "/></g></g></g><g fill="#ff1f70" fill-opacity="1"><g transform="translate(310.014883, 533.689998)"><g><path d="M -22.875 0 L 52.578125 -327.3125 L 183.65625 -327.3125 L 169.171875 -263.671875 L 104.015625 -263.671875 L 91.828125 -211.46875 L 153.546875 -211.46875 L 139.078125 -148.609375 L 77.34375 -148.609375 L 43.046875 0 Z M -22.875 0 "/></g></g></g><g fill="#ff1f70" fill-opacity="1"><g transform="translate(538.251531, 533.689998)"><g><path d="M 54.09375 3.046875 C 24.375 3.046875 4.628906 -4.316406 -5.140625 -19.046875 C -14.921875 -33.785156 -16.003906 -57.535156 -8.390625 -90.296875 L -1.15625 -122.3125 L 63.25 -122.3125 L 53.71875 -81.546875 C 49.90625 -65.285156 53.207031 -57.15625 63.625 -57.15625 C 69.46875 -57.15625 73.976562 -58.867188 77.15625 -62.296875 C 80.332031 -65.722656 82.804688 -71.503906 84.578125 -79.640625 C 87.117188 -90.304688 87.878906 -99.128906 86.859375 -106.109375 C 85.847656 -113.097656 83.945312 -118.941406 81.15625 -123.640625 C 78.363281 -128.335938 73.03125 -135.640625 65.15625 -145.546875 L 43.4375 -173.75 C 26.664062 -195.082031 21.203125 -218.707031 27.046875 -244.625 C 33.398438 -272.5625 44.703125 -293.832031 60.953125 -308.4375 C 77.210938 -323.050781 97.664062 -330.359375 122.3125 -330.359375 C 151.769531 -330.359375 171.195312 -322.546875 180.59375 -306.921875 C 190 -291.296875 190.765625 -266.847656 182.890625 -233.578125 L 116.203125 -233.578125 L 121.15625 -256.046875 C 122.175781 -260.367188 121.796875 -263.800781 120.015625 -266.34375 C 118.242188 -268.882812 115.195312 -270.15625 110.875 -270.15625 C 105.789062 -270.15625 101.597656 -268.753906 98.296875 -265.953125 C 94.992188 -263.160156 92.835938 -259.351562 91.828125 -254.53125 C 89.285156 -243.863281 92.835938 -232.8125 102.484375 -221.375 L 132.21875 -184.796875 C 139.070312 -176.160156 144.53125 -167.96875 148.59375 -160.21875 C 152.65625 -152.476562 155.257812 -143.335938 156.40625 -132.796875 C 157.550781 -122.253906 156.472656 -109.742188 153.171875 -95.265625 C 145.546875 -62.992188 133.921875 -38.539062 118.296875 -21.90625 C 102.679688 -5.269531 81.28125 3.046875 54.09375 3.046875 Z M 54.09375 3.046875 "/></g></g></g></svg>